<?xml version="1.0" encoding="UTF-8"?>
<svg width="499px" height="500px" version="1.1" viewBox="0 0 499 500" xmlns="http://www.w3.org/2000/svg">
 <g id="iconGroup">
  <g fill="#fff">
   <path d="m325.04 269.03-1.4609-83.469-51.984 11.344 1.2773 73.031c0.66406 38.168-26.512 69.508-67.5 70.215-40.23 0.71094-67.461-29.035-68.133-67.848l-3.0547-175.27 187.2-37.027-0.89453-51.461-241.04 45.184 4.5391 219.51c1.1914 68.07 46.641 120.62 116.11 119.39 69.758-1.2109 126.1-56.672 124.93-123.6z"/>
   <path d="m415.65 79.586-239.23 45.926 2.5469 146.06c-0.3125 19.262 11.027 33.938 25.801 33.738 13.918-0.1875 26.047-15.07 26.359-34.637l-1.793-102.59 135.23-25.945 2.2031 126.16c1.6328 93.668-70.121 168.31-164.01 169.95-21.953 0.38672-43.129-3.4766-62.809-10.598l0.96484 55.172c19.965 5.1914 40.973 7.9766 62.746 7.5898 125.2-2.1758 217.42-100.11 215.27-223.02z"/>
  </g>
 </g>
</svg>
